<?xml version="1.0" encoding="utf-8"?>

<!-- License Agreement at http://iconmonstr.com/license/ -->

<!DOCTYPE svg PUBLIC "-//W3C//DTD SVG 1.1//EN" "http://www.w3.org/Graphics/SVG/1.1/DTD/svg11.dtd">
<svg version="1.1" xmlns="http://www.w3.org/2000/svg" xmlns:xlink="http://www.w3.org/1999/xlink" x="0px" y="0px"
	 width="512px" height="512px" viewBox="0 0 512 512" style="enable-background:new 0 0 512 512;" xml:space="preserve">
<path id="calculator-icon" d="M50,387c0,41.421,33.578,75,75,75h116V273H50V387z M106.259,353.363h29.82v-29.82h23.029v29.82h29.82
	v23.029h-29.82v29.819h-23.029v-29.819h-29.82V353.363z M271,462h116c41.422,0,75-33.579,75-75V273H271V462z M324.165,332.361h82.67
	v21.41h-82.67V332.361z M324.165,375.988h82.67v21.407h-82.67V375.988z M387,50H271v193h191V125C462,83.578,428.422,50,387,50z
	 M364.264,97.63c7.485,0,13.555,6.069,13.555,13.555c0,7.485-6.069,13.554-13.555,13.554c-7.486,0-13.555-6.069-13.555-13.554
	C350.709,103.699,356.777,97.63,364.264,97.63z M364.264,199.37c-7.486,0-13.555-6.069-13.555-13.555s6.068-13.554,13.555-13.554
	c7.485,0,13.555,6.068,13.555,13.554S371.749,199.37,364.264,199.37z M406.835,158.949h-82.67V137.54h82.67V158.949z M50,125v118
	h191V50H125C83.578,50,50,83.578,50,125z M170.63,111.197l15.469,15.47l-22.931,22.931l22.931,22.931L170.63,188l-22.932-22.932
	L124.766,188l-15.468-15.47l22.931-22.931l-22.931-22.931l15.468-15.47l22.932,22.932L170.63,111.197z" fill="#eee"/>
</svg>
